<?xml version="1.0" encoding="UTF-8"?>
<svg width="108px" height="108px" viewBox="0 0 108 108" version="1.1" xmlns="http://www.w3.org/2000/svg" xmlns:xlink="http://www.w3.org/1999/xlink">
    <title>Artboard</title>
    <defs>
        <polygon id="path-1" points="76.5 47.8498814 71.75 50.8612159 72.289703 45.6749407 67 43.5 72.289703 41.3250593 71.75 36.1387841 76.5 39.1501186 81.25 36.1387841 80.710297 41.3250593 86 43.5 80.710297 45.6749407 81.25 50.8612159"></polygon>
        <filter x="-10.5%" y="-5.1%" width="121.1%" height="110.1%" filterUnits="objectBoundingBox" id="filter-2">
            <feGaussianBlur stdDeviation="1" in="SourceAlpha" result="shadowBlurInner1"></feGaussianBlur>
            <feOffset dx="0" dy="2" in="shadowBlurInner1" result="shadowOffsetInner1"></feOffset>
            <feComposite in="shadowOffsetInner1" in2="SourceAlpha" operator="arithmetic" k2="-1" k3="1" result="shadowInnerInner1"></feComposite>
            <feColorMatrix values="0 0 0 0 1   0 0 0 0 1   0 0 0 0 1  0 0 0 0.5 0" type="matrix" in="shadowInnerInner1"></feColorMatrix>
        </filter>
    </defs>
    <g id="Artboard" stroke="none" stroke-width="1" fill="none" fill-rule="evenodd">
        <circle id="Oval" fill="#FFD15C" cx="54" cy="54" r="54"></circle>
        <path d="M17.8369902,93.9683326 C20.1777323,96.1266915 22.4731697,97.8643495 24.7233024,99.1813066 C29.1816363,101.790679 38.3857819,109.530053 59.1516225,107.58049 C63.9706123,107.128068 72.1370774,105.756144 81.2760048,100.812764 C84.0924073,99.2893303 88.2712642,95.8578101 93.8125754,90.5182031 L80.2509615,50.1031016 L25.7295236,53.2274417 C24.1435131,61.1363856 22.7402648,70.2471224 21.5197788,80.5596521 C20.2992928,90.8721818 19.0716966,95.3417419 17.8369902,93.9683326 Z" id="Path-68" fill="#FFD4DD"></path>
        <path d="M93.522745,90.8350871 C92.465199,89.8582958 91.4745965,84.9075251 90.5509375,75.982775 C90.0556652,69.5268643 90.0556652,64.532606 90.5509375,61 C91.0462098,57.467394 90.5493875,53.1340607 89.0604708,48 C85.0733858,36.6666667 80.5514323,29.5609727 75.4946103,26.6829182 C70.4377882,23.8048637 63.5438724,22.4014523 54.812863,22.4726841 C49.9110939,22.4242668 46.0388993,22.9333721 43.1962793,24 C40.3536593,25.0666279 36.9531074,27.3999612 32.9946237,31 C31.2279863,33.0878207 30.0181983,34.6652349 29.3652598,35.7322428 C28.7123212,36.7992506 28.1640243,38.3745535 27.7203691,40.4581514" id="Path-51" stroke="#895B5B" fill="#FFD4DD" stroke-linejoin="round"></path>
        <path d="M25.1051162,65.0427098 C24.3406506,70.4701425 23.9584178,75.2525168 23.9584178,79.3898325 C23.9584178,83.5271482 25.3326253,86.9546481 28.0810402,89.6723321 C28.1151212,87.5761581 29.2353032,86.7733926 31.441586,87.2640355 C33.6478688,87.7546785 36.1422582,87.5438748 38.9247542,86.6316244 C38.7932292,85.2141267 38.6314247,84.1695487 38.4393407,83.4978904 C38.2472567,82.8262321 37.8459783,81.9018834 37.2355055,80.7248444 L32.8561893,58.7481642" id="Path-50" stroke="#895B5B" fill="#FFD4DD" stroke-linecap="round" stroke-linejoin="round"></path>
        <path d="M68.3157223,46 C53.6690254,41.9587662 44.0996134,41.1254329 39.6074865,43.5 C35.1153595,45.8745671 32.25147,53.2802232 31.0158179,65.7169683 C32.097447,67.3796208 32.6382615,69.807298 32.6382615,73 C32.6382615,76.192702 33.2044632,78.3120341 34.3368667,79.3579963 C36.2020847,80.3125987 38.1948137,81.0455678 40.3150537,81.5569039 C42.4352937,82.0682399 45.5896119,82.4957486 49.7780082,82.8394299 C49.9731655,83.7857738 50.0922853,84.5059639 50.1353676,85 C50.1784499,85.4940361 50.1784499,86.1239629 50.1353676,86.8897801 C52.3206047,87.6299267 53.9284635,88 54.9589438,88 C55.9894242,88 57.1551626,87.3977774 58.4561591,86.1933321 C58.2289973,85.5155284 58.1154163,84.9076321 58.1154163,84.3696435 C58.1154163,83.8316549 58.2289973,83.1604659 58.4561591,82.3560765 C60.8182661,82.2575048 62.5333139,82.1175481 63.6013026,81.9362065 C64.6692913,81.7548648 66.2407645,81.1508271 68.3157223,80.1240935 C70.0508343,77.5948398 70.9183903,73.8868087 70.9183903,69 C70.9183903,64.1131913 70.0508343,56.4465247 68.3157223,46 Z" id="Path-49" stroke="#895B5B" fill="#FFF7EE" stroke-linecap="round" stroke-linejoin="round"></path>
        <path d="M29.1759983,37.6544724 C25.5485456,43.9565456 23.4313422,48.7641338 22.8243881,52.0772368 C22.217434,55.3903399 22.5731556,60.1979281 23.8915529,66.5000013 C24.6138877,65.1666671 25.5767979,64.5 26.7802835,64.5 C27.9837691,64.5 30.0552159,65.1666671 32.9946237,66.5000013 C33.4829662,60.9542143 34.3577233,56.4542139 35.6188951,53 C36.8800669,49.5457861 39.5159173,44.4306103 43.5264463,37.6544724 C41.6658345,43.7757053 40.6904916,48.0575478 40.6004177,50.5 C40.5103437,52.9424522 41.2355824,55.4424522 42.7761337,58 C43.8710903,58.3370801 44.7525911,58.3370801 45.4206361,58 C46.3455943,57.5332875 47.1592829,55.1481108 48.4594592,55 C50.0519178,54.8185936 51.9780895,57.7376958 54.4339703,58 C55.5816545,58.1225802 57.5479787,57.4559136 60.3329429,56 C60.7124353,53.4984918 60.7124353,51.1651584 60.3329429,49 C59.9534505,46.8348416 58.6758028,43.052999 56.5,37.6544724 C59.6666246,42.9088615 61.730802,47.190704 62.692532,50.5 C63.6542619,53.8092959 64.3964791,59.1426297 64.9191834,66.5000013 C67.4291441,64.8333338 69.4288798,64 70.9183903,64 C72.4079007,64 74.44571,64.8333338 77.031818,66.5000013 C78.1939316,62.262592 78.7227388,58.7625915 78.6182396,56 C78.5137405,53.2374085 77.7264522,49.9040751 76.2563747,46" id="Path-47" stroke="#895B5B" fill="#FFD4DD" stroke-linecap="round" stroke-linejoin="round"></path>
        <ellipse id="Oval" fill="#FFC8C1" transform="translate(66.291195, 76.844184) rotate(-21.000000) translate(-66.291195, -76.844184) " cx="66.291195" cy="76.8441841" rx="3.5" ry="2"></ellipse>
        <path d="M70.9183903,64.5 C70.8901392,69.4713962 70.5319821,73.3047295 69.8439189,76 C69.1558557,78.6952705 67.5142772,82.6952705 64.9191834,88 C68.3662146,87.8659727 70.921511,87.8659727 72.5850724,88 C74.2486338,88.1340273 75.830707,88.4673606 77.331292,89 C78.5546872,85.6901656 79.3325041,82.8404191 79.6647428,80.4507606 C79.9969815,78.061102 80.1923877,73.9108485 80.2509615,68" id="Path-48" stroke="#895B5B" fill="#FFD4DD" stroke-linecap="round" stroke-linejoin="round"></path>
        <path d="M23.0847468,61.5 C22.3141453,72.0828241 21.498921,79.9161574 20.6390741,85 C19.7792272,90.0838426 18.9688704,93.1793537 18.208004,94.2865332" id="Path-52" stroke="#895B5B"></path>
        <path d="M50.0000065,84.7146004 C49.2040534,84.9682183 48.6549809,85.3050593 48.352789,85.7251234 C48.0505971,86.1451875 47.6107465,86.8215368 47.033237,87.7541713 C44.9655852,88.9935953 43.5787904,89.9514088 42.8728525,90.6276119 C40.9602292,92.4596734 39.9856996,94.4150018 39.4763866,95.5169276 C39.4211588,95.636416 39.3853559,95.7710265 39.3191337,95.875229 C37.6998306,98.4232516 36.2508146,101.233773 34.9720856,104.306793 L39.6177504,105.956991" id="Path-54" stroke="#895B5B" fill="#FFFFFF"></path>
        <path d="M58.4402437,84.7146004 C59.567934,84.7827983 60.3343719,85.0781634 60.7395572,85.6006958 C61.1447426,86.1232281 61.4469633,86.8079062 61.6462193,87.65473 C61.9189357,88.1039719 62.8457864,88.6470194 64.4267712,89.2838725 C66.007756,89.9207257 67.1184296,90.6565171 67.758792,91.4912469 C69.7881642,94.6099689 71.2371969,97.0236907 72.1058901,98.7324122 C72.9745833,100.441134 73.64916,102.062021 74.1296202,103.595074 L69,105.549839" id="Path-55" stroke="#895B5B" fill="#FFFFFF"></path>
        <path d="M45.3242786,89.6723321 C44.2104014,91.2661912 43.2593134,93.1879008 42.4710145,95.4374609 C41.6827156,97.6870211 40.7316276,101.193531 39.6177504,105.956991 C44.581326,107.022675 48.9476476,107.529403 52.7167151,107.477174 C56.4857826,107.424946 61.9611917,106.782501 69.1429424,105.549839 C68.9529976,103.439715 68.57229,101.32478 68.0008194,99.2050328 C67.4293488,97.085286 66.3355831,93.9077192 64.7195225,89.6723321 L54,88" id="Path-57" stroke="#895B5B" fill="#F78B8D"></path>
        <path d="M45.3242786,89 C45.8805538,90.1875543 46.4107312,90.9768728 46.9148107,91.3679555 C47.4188902,91.7590383 47.9776724,92.0313478 48.5911572,92.184884 C50.4360637,92.184884 51.774968,91.7161879 52.6078701,90.7787955 C53.4407722,89.8414031 53.9048155,88.9151379 54,88 C55.2520878,88.6920829 55.934288,89.618348 56.0466004,90.7787955 C56.1589129,91.9392429 57.2874028,92.4079391 59.4320703,92.184884 C60.3000867,92.0157588 61.0313886,91.7434493 61.6259761,91.3679555 C62.2205637,90.9924617 62.7419968,90.2031432 63.1902756,89 C62.1643187,87.2821942 61.3474126,86.1490928 60.7395572,85.6006958 C60.1317018,85.0522987 59.365264,84.7569336 58.4402437,84.7146004 C58.1584706,85.795905 57.7338024,86.4859218 57.1662392,86.7846506 C56.598676,87.0833795 55.6290219,87.488496 54.2572771,88 L50.0000065,86.7846506 L50.0000065,84.7146004 C49.3142414,85.0801512 48.8446249,85.3755164 48.5911572,85.6006958 C48.3074395,85.8527491 48.22609,86.2311188 47.9724023,86.4835804 C47.3787554,87.074358 46.4960475,87.9131645 45.3242786,89 Z" id="Path-56" stroke="#895B5B" fill="#FFFFFF" stroke-linejoin="round"></path>
        <path d="M64.9191834,89.6723321 C66.3760664,93.3436758 67.3341871,96.1322992 67.7935452,98.0382023 C68.2529034,99.9441053 68.7027024,102.583702 69.1429424,105.956991" id="Path-58" stroke="#895B5B"></path>
        <path d="M42,61.5 C43.2313956,61.5 44.335825,62.1642453 45.1392219,63.2086613 C45.9840291,64.3069106 46.5,65.8257091 46.5,67.5 C46.5,69.1640664 45.9251059,70.7125466 45.0279669,71.8488944 C44.1579299,72.9509139 42.9805632,73.6727182 41.7319337,73.6727182 C40.6101202,73.6727182 39.0529363,72.9213674 38.2082069,72.042005 C37.1367326,70.9266014 36.9638675,69.3326873 36.9638675,67.5 C36.9638675,65.8766101 37.5750162,64.4028421 38.498581,63.3184801 C39.4429459,62.2096967 40.7177735,61.5 42,61.5 Z" id="Oval" stroke="#895B5B" fill="#D48588"></path>
        <ellipse id="Oval" fill="#FFC8C1" transform="translate(38.914608, 76.385534) rotate(17.000000) translate(-38.914608, -76.385534) " cx="38.914608" cy="76.3855345" rx="3.5" ry="2"></ellipse>
        <ellipse id="Oval" stroke="#7B5254" fill="#D48588" cx="63.5" cy="67" rx="5" ry="6.5"></ellipse>
        <path d="M41.7319337,58.7641806 C39.9823022,58.6135435 38.2262801,59.5254833 36.4638675,61.5 C34.7014548,63.4745167 33.833976,65.5033031 33.8614309,67.5863591" id="Path-59" stroke="#895B5B" stroke-linecap="round"></path>
        <path d="M61.4393738,58.1636175 C62.8131246,58.0019131 64.340273,58.196762 66.0208189,58.7481642 C67.7013649,59.2995664 69.1150587,60.4520515 70.2619004,62.2056196" id="Path-60" stroke="#895B5B" stroke-linecap="round" stroke-linejoin="round"></path>
        <path d="M51.2607252,72.9069217 C51.4927395,72.8273723 51.7092077,72.8273723 51.9101297,72.9069217 C52.1110517,72.9864711 52.3799135,73.0929194 52.7167151,73.2262665" id="Path-61" stroke="#895B5B" stroke-linecap="round"></path>
        <g id="Star">
            <use fill="#F88A8B" fill-rule="evenodd" xlink:href="#path-1"></use>
            <use fill="black" fill-opacity="1" filter="url(#filter-2)" xlink:href="#path-1"></use>
            <path stroke="#895B5B" stroke-width="1" d="M80.6458346,37.1138157 L80.1742736,41.6452799 L84.6851638,43.5 L80.1742736,45.3547201 L80.6458346,49.8861843 L76.5,47.2578696 L72.3541654,49.8861843 L72.8257264,45.3547201 L68.3148362,43.5 L72.8257264,41.6452799 L72.3541654,37.1138157 L76.5,39.7421304 L80.6458346,37.1138157 Z" stroke-linejoin="square"></path>
        </g>
        <path d="M36.9895361,54.6666343 C37.3322234,54.3381756 38.2082949,53.9758513 39.6177504,53.5796612 C41.027206,53.1834711 42.2203663,52.9853761 43.1972313,52.9853761" id="Path-62" stroke="#895B5B" stroke-linecap="round"></path>
        <path d="M67,54 C66.709214,53.6884139 66.0156084,53.3502059 64.9191834,52.9853761 C63.8227583,52.6205462 62.9960455,52.4438917 62.439045,52.4554125" id="Path-63" stroke="#895B5B" stroke-linecap="round"></path>
        <line x1="37.7963665" y1="74.7830342" x2="36.4638675" y2="76.75" id="Path-64" stroke="#895B5B" stroke-linecap="round"></line>
        <line x1="40.8501971" y1="75.7665171" x2="40.1074865" y2="77.8932666" id="Path-65" stroke="#895B5B" stroke-linecap="round"></line>
        <line x1="64.7195225" y1="75.7665171" x2="64.7195225" y2="77.8932666" id="Path-66" stroke="#895B5B" stroke-linecap="round"></line>
        <line x1="67.6859164" y1="74.1727182" x2="68.3157223" y2="75.7665171" id="Path-67" stroke="#895B5B" stroke-linecap="round"></line>
    </g>
</svg>