<?xml version="1.0" encoding="UTF-8"?>
<svg width="152px" height="150px" viewBox="0 0 152 150" version="1.1" xmlns="http://www.w3.org/2000/svg" xmlns:xlink="http://www.w3.org/1999/xlink">
    <title>avatar2</title>
    <defs>
        <polygon id="path-1" points="80.1630098 35.9156032 73.6630098 39.9897616 74.4015508 32.9730363 67.1630098 30.0304695 74.4015508 27.0879026 73.6630098 20.0711773 80.1630098 24.1453358 86.6630098 20.0711773 85.9244688 27.0879026 93.1630098 30.0304695 85.9244688 32.9730363 86.6630098 39.9897616"></polygon>
        <filter x="-7.7%" y="-2.0%" width="115.4%" height="104.0%" filterUnits="objectBoundingBox" id="filter-2">
            <feGaussianBlur stdDeviation="1" in="SourceAlpha" result="shadowBlurInner1"></feGaussianBlur>
            <feOffset dx="0" dy="2" in="shadowBlurInner1" result="shadowOffsetInner1"></feOffset>
            <feComposite in="shadowOffsetInner1" in2="SourceAlpha" operator="arithmetic" k2="-1" k3="1" result="shadowInnerInner1"></feComposite>
            <feColorMatrix values="0 0 0 0 1   0 0 0 0 1   0 0 0 0 1  0 0 0 0.5 0" type="matrix" in="shadowInnerInner1"></feColorMatrix>
        </filter>
    </defs>
    <g id="avatar2" stroke="none" stroke-width="1" fill="none" fill-rule="evenodd">
        <ellipse id="Oval" fill="#454360" cx="76" cy="75" rx="76" ry="75"></ellipse>
        <g id="Group" transform="translate(25.836990, 33.469531)">
            <path d="M0.163009781,99.4963382 C3.36715986,102.446918 6.5092941,104.82238 9.5894125,106.622723 C15.692251,110.18986 28.2914451,120.769955 56.7169903,118.104809 C63.3135164,117.486326 74.4922703,115.61084 87.0021898,108.853003 C90.8574528,106.770397 96.5777261,102.079344 104.16301,94.7798462 L85.5990481,39.5304695 L10.9667894,43.8015919 C8.7957617,54.6134964 6.87491014,67.0683094 5.20423469,81.1660307 C3.53355924,95.263752 1.85315094,101.373854 0.163009781,99.4963382 Z" id="Path-68" fill="#FFD4DD"></path>
            <path d="M103.16301,94.5304695 C101.716571,93.1874192 100.361692,86.3803007 99.0983742,74.109114 C98.4209745,65.2324861 98.4209745,58.3655737 99.0983742,53.5083769 C99.7757738,48.6511801 99.0962543,42.6930141 97.0598156,35.633879 C91.6065528,20.0509833 85.4217333,10.2809286 78.5053572,6.32371478 C71.588981,2.36650095 62.1599534,0.436864512 50.2182744,0.534805466 C43.513969,0.468233591 38.2178455,1.16823372 34.3299038,2.63480586 C30.4419621,4.101378 25.7909193,7.30962122 20.3767754,12.2595355 C17.9604893,15.1302083 16.3058238,17.299092 15.412779,18.7661866 C14.5197342,20.2332812 13.7698112,22.3992618 13.1630098,25.2641284" id="Path-51" stroke="#895B5B" fill="#FFD4DD" stroke-linejoin="round"></path>
            <path d="M9.69537997,59.079476 C8.67379984,66.4508037 8.16300978,72.946038 8.16300978,78.5651791 C8.16300978,84.1843201 9.99940774,88.8394169 13.6722037,92.5304695 C13.7177472,89.6835275 15.2146826,88.5932427 18.1630098,89.2596148 C21.111337,89.925987 24.4446703,89.6396816 28.1630098,88.4006987 C27.9872487,86.4755085 27.7710241,85.0568033 27.514336,84.1445832 C27.257648,83.2323631 26.7214066,81.9769488 25.9056121,80.3783402 L20.05339,50.5304695" id="Path-50" stroke="#895B5B" fill="#FFD4DD" stroke-linecap="round" stroke-linejoin="round"></path>
            <path d="M69.5756035,32.7805994 C49.3872226,27.2239155 36.1971542,26.0780847 30.0053984,29.3431071 C23.8136426,32.6081295 19.8661797,42.7908838 18.1630098,59.8913699 C19.653881,62.1775118 20.3993167,65.5155605 20.3993167,69.9055159 C20.3993167,74.2954712 21.1797449,77.2095463 22.7406014,78.6477412 C25.3115382,79.9603164 28.0582307,80.9681468 30.9806789,81.6712322 C33.9031271,82.3743177 38.2509044,82.9621408 44.0240108,83.4347015 C44.2930073,84.7359215 44.457197,85.7261806 44.5165798,86.4054787 C44.5759626,87.0847769 44.5759626,87.9509242 44.5165798,89.0039206 C47.5286172,90.0216198 49.7448209,90.5304695 51.165191,90.5304695 C52.5855611,90.5304695 54.1923651,89.7024152 55.9856031,88.0463067 C55.6724929,87.1143286 55.5159378,86.2784732 55.5159378,85.5387405 C55.5159378,84.7990078 55.6724929,83.876125 55.9856031,82.7700921 C59.2414303,82.6345563 61.6053789,82.4421163 63.0774489,82.1927721 C64.5495189,81.9434279 66.7155704,81.112878 69.5756035,79.7011223 C71.9672077,76.2234064 73.1630098,71.1248751 73.1630098,64.4055282 C73.1630098,57.6861814 71.9672077,47.1445385 69.5756035,32.7805994 Z" id="Path-49" stroke="#895B5B" fill="#FFF7EE" stroke-linecap="round" stroke-linejoin="round"></path>
            <path d="M15.2758463,21.5304695 C10.2964386,30.2695337 7.39015149,36.9362003 6.55698501,41.5304695 C5.72381852,46.1247386 6.21211786,52.7914053 8.02188304,61.5304695 C9.01343277,59.6815393 10.3352206,58.7570742 11.9872464,58.7570742 C13.6392722,58.7570742 16.4827491,59.6815393 20.517677,61.5304695 C21.1880252,53.8401449 22.3888051,47.6000091 24.1200168,42.8100621 C25.8512285,38.0201151 29.4694628,30.9269175 34.9747198,21.5304695 C32.4206562,30.0187629 31.0818022,35.9563799 30.9581575,39.3433203 C30.8345129,42.7302607 31.8300487,46.1970025 33.944765,49.7435456 C35.4478129,50.2109734 36.6578499,50.2109734 37.5748759,49.7435456 C38.844567,49.0963569 39.961518,45.7888402 41.7462713,45.5834555 C43.9322407,45.3318999 46.5762985,49.3798092 49.9474883,49.7435456 C51.5229155,49.9135272 54.2220906,48.9890627 58.0450136,46.9701522 C58.5659432,43.501319 58.5659432,40.2656933 58.0450136,37.2632753 C57.524084,34.2608572 55.7702559,29.0165886 52.7835292,21.5304695 C57.1303579,28.8167136 59.963856,34.7543305 61.2840237,39.3433203 C62.6041914,43.9323101 63.6230335,51.3280265 64.3405502,61.5304695 C67.7859757,59.2193071 70.5310147,58.0637259 72.5756672,58.0637259 C74.6203196,58.0637259 77.4176223,59.2193071 80.9675752,61.5304695 C82.5628096,55.6544679 83.2887038,50.8010288 83.1452577,46.9701522 C83.0018116,43.1392756 81.9211002,38.5169533 79.9031235,33.1031851" id="Path-47" stroke="#895B5B" fill="#FFD4DD" stroke-linecap="round" stroke-linejoin="round"></path>
            <ellipse id="Oval" fill="#FFC8C1" transform="translate(66.305754, 75.607083) rotate(-21.000000) translate(-66.305754, -75.607083) " cx="66.305754" cy="75.6070827" rx="4.79112487" ry="2.74324633"></ellipse>
            <path d="M72.3801483,58.5304695 C72.3414528,65.4295499 71.8508835,70.7492777 70.9084405,74.4896531 C69.9659975,78.2300285 67.7175206,83.7810489 64.1630098,91.1427144 C68.8844228,90.9567173 72.3844228,90.9567173 74.6630098,91.1427143 C76.9415967,91.3287114 79.108569,91.7912965 81.1639265,92.5304695 C82.8396159,87.9372299 83.9049949,83.9824797 84.3600637,80.6662188 C84.8151324,77.349958 85.0827811,71.5904225 85.1630098,63.3876123" id="Path-48" stroke="#895B5B" fill="#FFD4DD" stroke-linecap="round" stroke-linejoin="round"></path>
            <path d="M7.16300978,54.5304695 C6.05690044,69.0555515 4.88674038,79.8069169 3.65252962,86.7845657 C2.41831885,93.7622146 1.25514557,98.0108492 0.163009781,99.5304695" id="Path-52" stroke="#895B5B"></path>
            <path d="M44.1630098,86.5304695 C43.0507457,86.8767073 42.2834724,87.3365609 41.8611899,87.9100302 C41.4389073,88.4834995 40.8242605,89.406848 40.0172494,90.6800757 C37.1279151,92.3721309 35.1900095,93.6797328 34.2035326,94.6028817 C31.530835,97.1040024 30.1690284,99.7734066 29.457315,101.27775 C29.3801396,101.440875 29.3301087,101.624644 29.23757,101.766901 C26.9747576,105.245448 24.9499042,109.082357 23.1630098,113.277628 L29.6548566,115.530469" id="Path-54" stroke="#895B5B" fill="#FFFFFF"></path>
            <path d="M56.1630098,86.5304695 C57.6724067,86.6253923 58.6982725,87.0365029 59.2406072,87.7638015 C59.7829418,88.4911 60.1874598,89.4440847 60.4541611,90.6227557 C60.819188,91.2480432 62.0597639,92.0038962 64.1758888,92.8903146 C66.2920138,93.7767331 67.7786341,94.8008612 68.6357497,95.9626988 C71.3520347,100.303563 73.2915437,103.663156 74.4542768,106.041479 C75.6170099,108.419802 76.5199209,110.675871 77.1630098,112.809686 L70.2970885,115.530469" id="Path-55" stroke="#895B5B" fill="#FFFFFF"></path>
            <path d="M37.894073,92.8482843 C36.3850198,95.0573372 35.0965092,97.7207837 34.0285414,100.838624 C32.9605736,103.956464 31.672063,108.816408 30.1630098,115.418457 C36.8875393,116.89547 42.8029237,117.597784 47.9091632,117.525397 C53.0154027,117.453009 60.4333516,116.562595 70.1630098,114.854153 C69.9056773,111.929568 69.389904,108.998315 68.6156897,106.060394 C67.8414755,103.122472 66.3596689,98.7184358 64.1702699,92.8482843 L49.6477259,90.5304695" id="Path-57" stroke="#895B5B" fill="#F78B8D"></path>
            <path d="M38.1630098,92.225938 C38.9102732,93.8042453 39.6224784,94.8532814 40.2996255,95.3730461 C40.9767726,95.8928108 41.7274037,96.2547211 42.5515187,96.458777 C45.0298442,96.458777 46.8284398,95.8358609 47.9473054,94.5900287 C49.066171,93.3441965 49.6895362,92.1131529 49.8174008,90.8968977 C51.4993728,91.8167037 52.4157954,93.0477474 52.5666686,94.5900287 C52.7175417,96.13231 54.2334805,96.7552261 57.1144851,96.458777 C58.280521,96.2340028 59.2629037,95.8720925 60.0616333,95.3730461 C60.8603629,94.8739997 61.5608217,93.8249637 62.1630098,92.225938 C60.7848072,89.9429049 59.6874295,88.4369676 58.8708767,87.7081259 C58.0543239,86.9792842 57.024742,86.5867321 55.7821308,86.5304695 C55.4036154,87.9675668 54.8331442,88.8846268 54.0707173,89.2816495 C53.3082904,89.6786723 52.0057212,90.2170883 50.1630098,90.8968977 L44.4440738,89.2816495 L44.4440738,86.5304695 C43.5228622,87.0163013 42.8920105,87.4088534 42.5515187,87.7081259 C42.1703911,88.0431149 42.0611115,88.5459835 41.7203243,88.881515 C40.9228582,89.6666822 39.7370867,90.7814899 38.1630098,92.225938 Z" id="Path-56" stroke="#895B5B" fill="#FFFFFF" stroke-linejoin="round"></path>
            <path d="M64.1630098,93.5304695 C66.232564,98.4903254 67.5936085,102.257657 68.2461431,104.832465 C68.8986777,107.407273 69.5376332,110.973274 70.1630098,115.530469" id="Path-58" stroke="#895B5B"></path>
            <path d="M33.5192057,54.0304695 C35.2038434,54.0304695 36.7168769,54.961096 37.8167022,56.4314345 C38.9616624,57.9621132 39.6630098,60.0783448 39.6630098,62.4124631 C39.6630098,64.7319653 38.8834346,66.8901055 37.6675023,68.4739453 C36.4784744,70.0227401 34.8678457,71.0304695 33.1630098,71.0304695 C31.6366931,71.0304695 29.5167873,69.9817434 28.367077,68.7509391 C26.9130626,67.1943669 26.6630098,64.9754592 26.6630098,62.4124631 C26.6630098,60.1461402 27.4920993,58.0884138 28.7459458,56.5744986 C30.033338,55.0200799 31.7724071,54.0304695 33.5192057,54.0304695 Z" id="Oval" stroke="#895B5B" fill="#D48588"></path>
            <ellipse id="Oval" fill="#FFC8C1" transform="translate(28.843056, 74.977773) rotate(17.000000) translate(-28.843056, -74.977773) " cx="28.843056" cy="74.9777728" rx="4.79057273" ry="2.74356068"></ellipse>
            <ellipse id="Oval" stroke="#7B5254" fill="#D48588" cx="62.6630098" cy="62.0304695" rx="7" ry="9"></ellipse>
            <path d="M33.1630098,50.5522156 C30.7178798,50.3476891 28.263819,51.5858693 25.8008273,54.2667561 C23.3378355,56.9476429 22.125524,59.702214 22.1638926,62.5304695" id="Path-59" stroke="#895B5B" stroke-linecap="round"></path>
            <path d="M60.1630098,49.6110194 C62.0315232,49.3742058 64.1086811,49.6595591 66.3944833,50.4670791 C68.6802856,51.2745991 70.6031278,52.9623959 72.1630098,55.5304695" id="Path-60" stroke="#895B5B" stroke-linecap="round" stroke-linejoin="round"></path>
            <path d="M46.1630098,69.9006281 C46.4817129,69.8210786 46.7790614,69.8210786 47.0550551,69.9006281 C47.3310488,69.9801775 47.7003671,70.0866258 48.1630098,70.2199729" id="Path-61" stroke="#895B5B" stroke-linecap="round"></path>
            <g id="Star">
                <use fill="#F88A8B" fill-rule="evenodd" xlink:href="#path-1"></use>
                <use fill="black" fill-opacity="1" filter="url(#filter-2)" xlink:href="#path-1"></use>
                <path stroke="#895B5B" stroke-width="1" d="M86.0582388,21.0403435 L85.3878576,27.4094973 L91.8352946,30.0304695 L85.3878576,32.6514416 L86.0582388,39.0205954 L80.1630098,35.3255035 L74.2677807,39.0205954 L74.938162,32.6514416 L68.4907249,30.0304695 L74.938162,27.4094973 L74.2677807,21.0403435 L80.1630098,24.7354354 L86.0582388,21.0403435 Z" stroke-linejoin="square"></path>
            </g>
            <path d="M26.1630098,44.5304695 C26.6046389,44.1397399 27.7336524,43.7087241 29.5500502,43.2374223 C31.3664481,42.7661204 32.9041013,42.5304695 34.1630098,42.5304695" id="Path-62" stroke="#895B5B" stroke-linecap="round"></path>
            <path d="M67.1630098,44.5304695 C66.7804767,44.1271522 65.8680289,43.6893755 64.4256664,43.2171395 C62.983304,42.7449034 61.8957518,42.5162417 61.1630098,42.5311542" id="Path-63" stroke="#895B5B" stroke-linecap="round"></path>
            <line x1="27.1630098" y1="72.5304695" x2="25.1630098" y2="75.5304695" id="Path-64" stroke="#895B5B" stroke-linecap="round"></line>
            <line x1="31.0343651" y1="74.5304695" x2="30.2916544" y2="77.5304695" id="Path-65" stroke="#895B5B" stroke-linecap="round"></line>
            <line x1="63.6630098" y1="74.5304695" x2="63.6630098" y2="77.5304695" id="Path-66" stroke="#895B5B" stroke-linecap="round"></line>
            <line x1="68.3481068" y1="72.5304695" x2="68.9779127" y2="74.5304695" id="Path-67" stroke="#895B5B" stroke-linecap="round"></line>
        </g>
    </g>
</svg>