<?xml version="1.0" encoding="UTF-8"?>
<svg width="96px" height="80px" viewBox="0 0 96 80" version="1.1" xmlns="http://www.w3.org/2000/svg" xmlns:xlink="http://www.w3.org/1999/xlink">
    <title>survey</title>
    <g id="survey" stroke="none" stroke-width="1" fill="none" fill-rule="evenodd">
        <g id="service-3">
            <path d="M95.5223881,21.7215189 L95.5223881,73.2099331 C95.5223881,76.7400491 92.6839552,79.60199 89.1828358,79.60199 L6.33955224,79.60199 C2.83843284,79.60199 0,76.7400491 0,73.2099331 L0,21.7215189 C0,18.1914029 2.83843284,15.3294619 6.33955224,15.3294619 L18.875,15.3294619 C21.575,15.3294619 23.980597,13.6056005 24.8656716,11.0327882 L27.1796642,4.29874298 C28.0647388,1.72574252 30.4682836,0 33.1703358,0 L70.1505597,0 C72.8505597,0 75.2541045,1.72574252 76.1391791,4.29874298 L78.4550373,11.0327882 C79.3401119,13.6057886 81.7436567,15.3294619 84.4436567,15.3294619 L89.1826493,15.3294619 C92.6839552,15.3294619 95.5223881,18.1914029 95.5223881,21.7215189 Z" id="Path" fill="#FFD15C" fill-rule="nonzero"></path>
            <g id="Group" fill="#DAB413" fill-rule="nonzero">
                <path d="M11.1818954,79.5233268 L6.26739473,79.5233268 C2.80612547,79.5233268 0,76.6670421 0,73.1439031 L0,21.7572515 C0,18.2341125 2.80612547,15.3778278 6.26739473,15.3778278 L10.7925349,15.3778278 L10.7925349,15.3896555 C7.51238927,15.5956069 4.91450067,18.367596 4.91450067,21.7572515 L4.91450067,73.1439031 C4.91450067,76.6672299 7.72062614,79.5233268 11.1818954,79.5233268 Z" id="Path"></path>
                <path d="M37.7071035,0.0786632873 C35.0359908,0.0786632873 32.659619,1.80099502 31.7846184,4.36891017 L29.496964,11.0896461 C28.6219634,13.6575613 26.2437471,15.3778278 23.5744788,15.3778278 L19.3691639,15.3778278 L19.3691639,15.3367127 C21.7435069,15.0620482 23.7864046,13.4279546 24.5822788,11.0896461 L26.8699333,4.36891017 C27.7449339,1.80099502 30.1211212,0.0786632873 32.7924184,0.0786632873 C32.7927873,0.0786632873 37.7071035,0.0786632873 37.7071035,0.0786632873 Z" id="Path"></path>
            </g>
            <rect id="Rectangle" fill="#FCE8C3" x="11" y="22" width="74" height="53" rx="5"></rect>
            <rect id="Rectangle" fill="#6C6CE5" x="22" y="30" width="9" height="9" rx="1"></rect>
            <rect id="Rectangle" fill="#6C6CE5" x="22" y="44" width="9" height="9" rx="1"></rect>
            <rect id="Rectangle" fill="#6C6CE5" x="22" y="58" width="9" height="9" rx="1"></rect>
            <rect id="Rectangle" fill-opacity="0.325641765" fill="#6C6CE5" x="38" y="32" width="37" height="5"></rect>
            <rect id="Rectangle" fill-opacity="0.325641765" fill="#6C6CE5" x="38" y="46" width="37" height="5"></rect>
            <rect id="Rectangle" fill-opacity="0.325641765" fill="#6C6CE5" x="38" y="60" width="37" height="5"></rect>
        </g>
    </g>
</svg>